<svg xmlns="http://www.w3.org/2000/svg" viewBox="0 0 100 100" fill="none" stroke-linecap="round" stroke-linejoin="round">
  <!-- Hintergrund-Kreis (Optional für App Icons) -->
  <rect width="100" height="100" fill="#ffffff" rx="20" />
  
  <!-- Körper & Schwanz -->
  <path d="M 20 80 Q 30 90, 50 85 Q 70 80, 75 60 Q 80 40, 60 35 Q 40 30, 35 50 Q 30 70, 50 75" stroke="#2563eb" stroke-width="2.5" fill="#2563eb" fill-opacity="0.1"/>
    
  <!-- Kopf & Hals -->
  <path d="M 60 35 Q 50 15, 30 20 Q 15 25, 25 40 Q 35 55, 55 50" stroke="#1d4ed8" stroke-width="2" fill="#1d4ed8" fill-opacity="0.2"/>
    
  <!-- Auge -->
  <circle cx="32" cy="28" r="2.5" fill="#1e293b" />

  <!-- Horn & Zacken -->
  <path d="M 30 20 L 25 5" stroke="#1e40af" stroke-width="2.5"/> 
  <path d="M 38 22 L 40 12" stroke="#1e40af" stroke-width="2"/>
  <path d="M 48 26 L 52 16" stroke="#1e40af" stroke-width="2"/>

  <!-- Arm & Hand -->
  <path d="M 55 50 Q 65 55, 70 50" stroke="#1d4ed8" stroke-width="2.5"/>
  <path d="M 70 50 L 75 48 M 70 50 L 76 52 M 70 50 L 74 55" stroke="#1d4ed8" stroke-width="2"/>

  <!-- Der "Plan" (Schriftrolle) -->
  <path d="M 65 45 C 65 40, 85 40, 85 45 L 85 65 C 85 70, 65 70, 65 65 Z" stroke="#d97706" stroke-width="2" fill="#d97706" fill-opacity="0.2"/>
  <line x1="70" y1="50" x2="80" y2="50" stroke="#b45309" stroke-width="1.5" />
  <line x1="70" y1="56" x2="80" y2="56" stroke="#b45309" stroke-width="1.5" />
  <line x1="70" y1="62" x2="75" y2="62" stroke="#b45309" stroke-width="1.5" />
</svg>
